<svg xmlns="http://www.w3.org/2000/svg" width="166" height="36"><g fill="none" fill-rule="evenodd"><path fill="#57657C" d="M89.559 27.436h-3.744L83.049 14.05 76.651 26.4c-.429.84-1.024 1.26-1.788 1.26-.857 0-1.509-.429-1.956-1.288L66.51 14.049l-2.738 13.387H60l4.274-17.56c.112-.504.359-.942.74-1.316.382-.373.825-.56 1.328-.56.726 0 1.415.626 2.067 1.877l6.37 12.518 6.398-12.518C81.83 8.626 82.518 8 83.245 8c.484 0 .93.196 1.34.588.354.355.597.784.727 1.289l4.247 17.56zm50.118-9.522c0-1.848-.592-3.36-1.774-4.537-1.183-1.176-2.687-1.764-4.512-1.764h-7.46v12.462h7.46c1.825 0 3.329-.569 4.512-1.708 1.182-1.139 1.774-2.623 1.774-4.453m3.325-.28c0 2.82-.904 5.153-2.71 7.002-1.807 1.848-4.107 2.772-6.901 2.772h-10.756V8.28h10.756c2.812 0 5.117.86 6.915 2.577 1.797 1.718 2.696 3.977 2.696 6.777m22.536 8.122c0 1.232-.42 1.848-1.258 1.848-.614 0-1.304-.382-2.067-1.148l-12.237-12.323v13.275h-3.297V9.932c0-.448.121-.835.364-1.162.241-.326.586-.49 1.033-.49.615 0 1.248.327 1.9.98l12.237 12.295V8.28h3.325v17.476z"/><path fill="#0082E9" d="M99.442 27.436c-.69.006-1.379-.625-2.067-1.876L87.792 8h4.274s6.18 11.283 7.46 13.919c.694 1.43 1.712 3.062 1.608 4.2-.065.722-.764 1.308-1.692 1.317"/><path fill="#57657C" d="M119.7 8l-9.834 17.56c-.69 1.25-1.379 1.876-2.068 1.876-.69 0-1.378-.625-2.067-1.876L96.148 8h4.274l7.46 13.919L115.425 8h4.275z"/><path fill="#0082E9" d="M19.964 35.999H3.925c-.194 0-.389.004-.583-.003-.685-.023-1.156-.36-1.305-.925-.133-.51.093-.971.674-1.31 1.566-.913 3.137-1.82 4.707-2.726 3.893-2.246 7.79-4.485 11.676-6.744.638-.371 1.21-.396 1.852-.024 5.408 3.13 10.825 6.25 16.236 9.377.666.385.926.9.778 1.44-.167.607-.657.914-1.49.914H19.964zM17 21.136c-.006.803-.343 1.098-.775 1.349-3.045 1.765-6.086 3.538-9.128 5.308l-4.741 2.76c-.187.108-.374.219-.571.307-.546.245-1.054.174-1.464-.259-.416-.44-.405-.919-.096-1.437 1.515-2.541 3.015-5.09 4.52-7.638.931-1.575 1.86-3.15 2.792-4.725.512-.865.985-1.015 1.845-.52 2.3 1.325 4.6 2.653 6.872 4.022.364.219.592.654.746.833zm1.993-12.124c0 2.484-.005 4.968.005 7.452.002.567-.082 1.073-.615 1.375-.524.299-1.001.143-1.482-.15-2.044-1.247-4.096-2.48-6.144-3.721-.835-.507-.959-.99-.473-1.844C12.438 8.338 14.593 4.553 16.75.769c.357-.628.8-.869 1.317-.732.533.142.93.696.93 1.35C19.003 3.93 19 6.47 19 9.013h-.006zM41 29.705c-.023.891-.782 1.462-1.529 1.251-.28-.08-.55-.217-.803-.364-4.537-2.64-9.071-5.285-13.606-7.93-.186-.109-.375-.216-.55-.342-.626-.454-.691-1.234-.124-1.757.242-.223.534-.398.821-.567 2.12-1.244 4.243-2.482 6.366-3.718.826-.482 1.392-.345 1.873.469a6852.47 6852.47 0 017.312 12.38c.125.213.192.46.24.578zM22 9.067V1.785c0-.21 0-.421.016-.63.046-.581.353-.968.9-1.113.542-.144.959.09 1.235.567a712.06 712.06 0 012.329 4.059c1.413 2.479 2.826 4.958 4.234 7.44.49.861.363 1.335-.475 1.842-2.08 1.26-4.161 2.52-6.244 3.776-1.063.64-1.957.12-1.96-1.148-.005-2.503-.001-5.007-.001-7.51H22z"/></g></svg>